<mxfile host="app.diagrams.net" modified="2024-02-01T07:59:18.979Z" agent="Mozilla/5.0 (Macintosh; Intel Mac OS X 10_15_7) AppleWebKit/537.36 (KHTML, like Gecko) Chrome/120.0.0.0 Safari/537.36" version="23.0.2" etag="JscIAW2e26IkWDcCfwtZ" type="github">
  <diagram name="Page-1" id="wM2ruMwiTi6jw3L_C0DY">
    <mxGraphModel>
      <root>
        <mxCell id="0" />
        <mxCell id="1" parent="0" />
      </root>
    </mxGraphModel>
  </diagram>
</mxfile>
